<svg xmlns="http://www.w3.org/2000/svg" height="1524" width="1414" version="1"><defs><clipPath id="a"><path d="M0 1143h1061V0H0z"/></clipPath></defs><g clip-path="url(#a)" transform="matrix(1.33333 0 0 -1.33333 0 1524)"><path d="M775 173v-54h4c3 0 6 3 6 6v53h-4c-3 0-6-2-6-5m-316-21l-16 26h-11l23-35v-24h4c3 0 5 3 5 6v18l24 35h-12zm-76-24h-13v41h13c14 0 21-10 21-20s-6-21-21-21m0 50h-22v-59h22c21 0 31 15 30 30 0 15-9 29-30 29m329-27l-20 27h-11v-59h4c3 0 6 2 6 6v40l20-29h2l20 29v-46h4c3 0 5 2 5 6v53h-11zm-157 22v-37l-34 42h-7v-59h4c3 0 6 3 6 6v36l34-42h7v59h-4c-3 0-6-2-6-5m363-19c-8 2-14 3-14 9s5 9 13 9c6 0 12-3 15-7l7 5c-5 8-13 10-22 10-11 0-23-5-23-17 0-13 11-16 23-17 8-1 15-4 15-10 0-7-8-10-15-10s-14 3-18 10l-7-5c5-10 14-13 25-13 13 0 25 5 25 18s-12 17-24 18m-308-14l13 28 12-28zm8 38l-27-59h10l6 12h32l6-12h10l-27 59zm-480-38l13 28 12-28zm8 38l-27-59h10l6 12h32l6-12h10l-27 59zm699-7c6 0 11-3 15-7l7 7a31 31 0 0 1-53-22 31 31 0 0 1 53-22l-7 6a22 22 0 0 0-37 16c0 12 10 22 22 22m-608-25h-18v24h18c15 0 15-24 0-24m0 33l-28-1v-59h4c3 0 6 3 6 6v12h18c28 0 28 42 0 42m75-33h-18v24h18c16 0 16-24 0-24m0 33l-27-1v-59h4c3 0 5 3 5 6v12h18c29 0 29 42 0 42M403 599L303 824a256 256 0 0 1 201-452L404 596l-1 3m65 425c-33 0-65-4-95-11l58-132a257 257 0 0 0 201-452l59-132a397 397 0 0 1-223 727" fill="#19212b"/></g></svg>