<svg id="Layer_1" data-name="Layer 1" xmlns="http://www.w3.org/2000/svg" xmlns:xlink="http://www.w3.org/1999/xlink" viewBox="0 0 70 58"><defs><style>.cls-2{fill:none}.cls-15,.cls-3{fill:#fff}.cls-15{fill-rule:evenodd}.cls-10{fill:#4926e2}.cls-11{fill:#fda8bf}.cls-13{fill:#5c008a}.cls-14{fill:#ee9bc7}</style><clipPath id="clip-path"><path d="M32.027 52.51a6.467 6.467 0 0 1 .545 3.082 8.518 8.518 0 0 1-2.122.24 14.078 14.078 0 0 1-5.902-.21c-3.882-.823-5.677-4.966-5.677-4.966s.038-.037.112-.1a.883.883 0 0 0-.37-.033 24.798 24.798 0 0 1-5.723.433c-1.91 0-9.465-2.869-11.9-5.945 0 0 3.78-.923 3.78-1.703S.452 41.086.452 41.086s-.654-3.599 3.974-7.192a28.282 28.282 0 0 1 8.05-4.742c-2.404-.321-9.2-3.026-11.486-5.913 0 0 3.78-.923 3.78-1.703S.452 19.314.452 19.314s-.654-3.6 3.974-7.193 8.092-5.3 11.984-5.5 5.197-.2 5.197-.2 3.388-4.573 5.168-4.573c.89 0 13.927 2.77 15.056 4.574a4.676 4.676 0 0 0 2.256 2.105c.577.433.214.087 2.829.671 6.541 1.462 5.65 2.035 10.51 2.923 1.966.36 10.98-4.07 11.831-3.64.396.2.707 4.01-.84 6.509s1.241 4.561-.012 7.69 1.435 5.445.852 6.504-10.155-3.465-11.832-3.138c-1.5.293-5.762 2.296-14.086 3.829a8.158 8.158 0 0 1 .748.425c.577.432.213.087 2.829.671 6.541 1.462 5.649 2.035 10.51 2.923 1.966.36 10.98-4.07 11.831-3.64.396.2.707 4.01-.841 6.508s1.242 4.562-.01 7.69 1.434 5.446.85 6.505-10.154-3.466-11.83-3.138-6.8 2.79-17.185 4.345a42.08 42.08 0 0 1-8.214.347z" clip-rule="evenodd" fill="none"/></clipPath><clipPath id="clip-path-2"><path class="cls-2" d="M.28.152h69.541V57.82H.28z"/></clipPath><linearGradient id="linear-gradient" x1="34.057" y1="1.848" x2="34.057" y2="21.494" gradientUnits="userSpaceOnUse"><stop offset="0" stop-color="#432fff"/><stop offset="1" stop-color="#4925e1"/></linearGradient><linearGradient id="linear-gradient-2" x1="33.625" y1="20.336" x2="38.827" y2="33.96" gradientUnits="userSpaceOnUse"><stop offset="0" stop-color="#ffa9be"/><stop offset="1" stop-color="#9050ff"/></linearGradient><linearGradient id="New_Gradient_Swatch_8" x1="35.22" y1="26.948" x2="35.22" y2="43.196" gradientUnits="userSpaceOnUse"><stop offset="0" stop-color="#5019be"/><stop offset="1" stop-color="#5b078a"/></linearGradient><linearGradient id="New_Gradient_Swatch_7" x1="31.834" y1="41.728" x2="38.791" y2="57.112" xlink:href="#linear-gradient-2"/><symbol id="New_Symbol" data-name="New Symbol" viewBox="0 0 1.061 1.061"><circle class="cls-3" cx=".531" cy=".531" r=".531"/></symbol></defs><g clip-path="url(#clip-path)"><g style="isolation:isolate" clip-path="url(#clip-path-2)"><path fill="url(#linear-gradient)" d="M-1.402 1.848h70.918v19.767H-1.402z"/><path fill="url(#linear-gradient-2)" d="M61.469 31.006l8.111-1.112.183-2.604v-5.772l-.632-2.031H42.683v2.031H.449v5.772l5.704 1.88 21.604 1.836h4.707"/><path fill="url(#New_Gradient_Swatch_8)" fill-rule="evenodd" d="M27.757 27.29H52.35v2.649l17.64-.047v11.475H33.354v2.036H.449V29.892l10.262-.737 17.046.132V27.29z"/><path class="cls-10" d="M27.245 11.988a835.386 835.386 0 0 1 4.573.248c.998.057 1.834.11 2.476.154a81.997 81.997 0 0 1 8.987 1.296 60.67 60.67 0 0 1 13.576 4.665l1.946.866a.715.715 0 0 0 .958-.463.862.862 0 0 0-.413-1.073l-1.948-.867a61.882 61.882 0 0 0-13.86-4.756 83.196 83.196 0 0 0-9.154-1.318 223.98 223.98 0 0 0-2.492-.155l-1.108-.063a840.811 840.811 0 0 0-4.618-.244l-.32-.016-.114-.005a.823.823 0 0 0-.687 1.207l.061.137a22.695 22.695 0 0 1 .7 1.812 16.398 16.398 0 0 1 .605 2.263c.049.266.085.52.11.763a12.637 12.637 0 0 1-.432 3.45 42.137 42.137 0 0 1-.423 1.702 58.225 58.225 0 0 1-.811 2.741l-.056.171-.02.057a.859.859 0 0 0 .432 1.064.717.717 0 0 0 .95-.483l.022-.065.059-.18a60.455 60.455 0 0 0 .838-2.829 44.13 44.13 0 0 0 .44-1.775 13.834 13.834 0 0 0 .468-4.039q-.045-.44-.13-.908a18.153 18.153 0 0 0-.67-2.517 25.45 25.45 0 0 0-.309-.859z"/><path class="cls-11" d="M27.254 21.497q.146-.58.268-1.13a14.185 14.185 0 0 0 .468-4.091q-.045-.446-.13-.92a18.577 18.577 0 0 0-.67-2.55c-.1-.298-.204-.59-.309-.87l.364.02a826.102 826.102 0 0 1 4.574.25c.997.059 1.833.112 2.476.157a81.018 81.018 0 0 1 8.987 1.312A60.142 60.142 0 0 1 56.857 18.4l1.946.877a.713.713 0 0 0 .958-.469.878.878 0 0 0-.413-1.087l-1.948-.878a61.344 61.344 0 0 0-13.86-4.817 82.203 82.203 0 0 0-9.154-1.335c-.649-.045-1.49-.098-2.492-.157l-1.109-.064a831.486 831.486 0 0 0-4.617-.247l-.32-.016-.114-.006a.834.834 0 0 0-.687 1.223l.061.139a23.25 23.25 0 0 1 .7 1.835 16.78 16.78 0 0 1 .605 2.293c.048.269.085.527.11.772a12.957 12.957 0 0 1-.432 3.495c-.11.492-.235 1.007-.374 1.539z"/><path class="cls-10" d="M21.226 12.26c.011.019.036.06.07.121a17.257 17.257 0 0 1 .815 1.632 11.7 11.7 0 0 1 .74 2.232 5.612 5.612 0 0 1 .128 1.129 9.721 9.721 0 0 1-.584 3.093 13.293 13.293 0 0 1-.54 1.327 3.256 3.256 0 0 1-.044.09.778.778 0 0 0 .258 1.009.649.649 0 0 0 .924-.282c.046-.089.122-.245.216-.46.156-.352.311-.743.456-1.164a11.25 11.25 0 0 0 .67-3.614 7.194 7.194 0 0 0-.162-1.457 13.212 13.212 0 0 0-.836-2.537 18.817 18.817 0 0 0-.98-1.937.644.644 0 0 0-.94-.21.784.784 0 0 0-.191 1.028z"/><path class="cls-11" d="M23.513 21.497q.077-.208.152-.427a11.55 11.55 0 0 0 .67-3.664 7.393 7.393 0 0 0-.162-1.477 13.53 13.53 0 0 0-.835-2.574 19.118 19.118 0 0 0-.98-1.963.64.64 0 0 0-.94-.212.802.802 0 0 0-.192 1.04l.07.124a17.627 17.627 0 0 1 .815 1.655 11.98 11.98 0 0 1 .74 2.262 5.767 5.767 0 0 1 .128 1.145 9.98 9.98 0 0 1-.584 3.136c-.116.343-.24.663-.364.955z"/><path fill="url(#New_Gradient_Swatch_7)" d="M69.601 56.124H.399V43.403h32.905l-.002-2.07h36.299v14.791z"/><path class="cls-13" d="M27.245 34.015a818.397 818.397 0 0 1 4.573.248c.998.058 1.834.11 2.476.154a82 82 0 0 1 8.987 1.296 60.67 60.67 0 0 1 13.576 4.666c.431.19 1.912.85 1.946.866a.715.715 0 0 0 .958-.463.862.862 0 0 0-.413-1.073l-1.948-.867a61.88 61.88 0 0 0-13.86-4.756 83.192 83.192 0 0 0-9.154-1.318 223.98 223.98 0 0 0-2.492-.155l-1.109-.063a858.696 858.696 0 0 0-4.617-.244l-.32-.016-.114-.005a.823.823 0 0 0-.687 1.207l.061.137a22.695 22.695 0 0 1 .7 1.812 16.398 16.398 0 0 1 .605 2.263c.048.266.085.52.11.763a12.637 12.637 0 0 1-.432 3.45 42.178 42.178 0 0 1-.423 1.702 58.225 58.225 0 0 1-.812 2.741l-.055.17-.02.058a.859.859 0 0 0 .432 1.064.717.717 0 0 0 .95-.483l.022-.065.059-.18a60.455 60.455 0 0 0 .838-2.829 44.13 44.13 0 0 0 .44-1.775 13.834 13.834 0 0 0 .467-4.039q-.044-.44-.13-.908a18.154 18.154 0 0 0-.67-2.517 25.45 25.45 0 0 0-.308-.859z"/><path class="cls-14" d="M27.254 43.403q.146-.572.268-1.117a13.834 13.834 0 0 0 .468-4.038q-.045-.44-.13-.909a18.154 18.154 0 0 0-.67-2.516 25.45 25.45 0 0 0-.309-.86l.364.02a818.397 818.397 0 0 1 4.574.247c.997.058 1.833.11 2.476.154a82 82 0 0 1 8.987 1.296 60.67 60.67 0 0 1 13.575 4.665l1.946.867a.715.715 0 0 0 .958-.463.862.862 0 0 0-.413-1.074c-.033-.014-1.515-.675-1.948-.866a61.88 61.88 0 0 0-13.86-4.756 83.192 83.192 0 0 0-9.155-1.318 223.98 223.98 0 0 0-2.49-.156l-1.11-.062a858.696 858.696 0 0 0-4.617-.244l-.321-.016-.114-.006a.823.823 0 0 0-.687 1.208l.062.137a22.695 22.695 0 0 1 .7 1.812 16.398 16.398 0 0 1 .604 2.263c.05.265.086.52.11.763a12.637 12.637 0 0 1-.432 3.45c-.109.485-.234.994-.373 1.52z"/><path class="cls-13" d="M21.226 34.287c.011.02.036.06.07.122a17.257 17.257 0 0 1 .815 1.632 11.7 11.7 0 0 1 .74 2.23 5.612 5.612 0 0 1 .128 1.13 9.721 9.721 0 0 1-.584 3.093 13.293 13.293 0 0 1-.54 1.327 3.256 3.256 0 0 1-.044.09.778.778 0 0 0 .258 1.01.649.649 0 0 0 .924-.282c.046-.09.122-.246.216-.46.156-.352.311-.744.456-1.165a11.25 11.25 0 0 0 .67-3.614 7.195 7.195 0 0 0-.162-1.456 13.213 13.213 0 0 0-.836-2.538 18.817 18.817 0 0 0-.98-1.937.644.644 0 0 0-.94-.21.784.784 0 0 0-.191 1.028z"/><path class="cls-14" d="M23.513 43.403q.077-.205.152-.422a11.25 11.25 0 0 0 .67-3.613 7.195 7.195 0 0 0-.162-1.457 13.213 13.213 0 0 0-.835-2.538 18.817 18.817 0 0 0-.98-1.936.644.644 0 0 0-.94-.21.784.784 0 0 0-.192 1.027c.011.02.036.06.07.122a17.257 17.257 0 0 1 .815 1.632 11.7 11.7 0 0 1 .74 2.23 5.612 5.612 0 0 1 .128 1.13 9.721 9.721 0 0 1-.584 3.093c-.116.338-.24.654-.364.942z"/></g></g><path class="cls-2" d="M.226 0h70v58h-70z"/><circle cx="12.226" cy="16" r="3"/><path class="cls-15" d="M9.226 15.76v-.036a3.234 3.234 0 1 1 3.232 3.329 2.985 2.985 0 0 1-3.186-2.767 2.359 2.359 0 0 0 2.446 2.073 2.567 2.567 0 1 0-2.492-2.598z"/><circle class="cls-3" cx="10.519" cy="16.687" r=".824"/><circle cx="12.226" cy="37.931" r="3"/><path class="cls-15" d="M9.226 37.692v-.037a3.234 3.234 0 1 1 3.232 3.329 2.985 2.985 0 0 1-3.186-2.767 2.359 2.359 0 0 0 2.445 2.073 2.567 2.567 0 1 0-2.491-2.598z"/><circle class="cls-3" cx="10.519" cy="38.618" r=".824"/><use width="1.061" height="1.061" transform="translate(26.556 18.103) scale(.8573)" xlink:href="#New_Symbol"/><use width="1.061" height="1.061" transform="translate(26.938 15.742) scale(.8565)" xlink:href="#New_Symbol"/><use width="1.061" height="1.061" transform="matrix(.852 0 0 .852 28.97 16.841)" xlink:href="#New_Symbol"/><use width="1.061" height="1.061" transform="translate(34.416 19.128) scale(.8415)" xlink:href="#New_Symbol"/><use width="1.061" height="1.061" transform="translate(37.983 13.286) scale(.8341)" xlink:href="#New_Symbol"/><use width="1.061" height="1.061" transform="translate(40.114 7.685) scale(.8325)" xlink:href="#New_Symbol"/><use width="1.061" height="1.061" transform="translate(37.089 8.093) scale(.8381)" xlink:href="#New_Symbol"/><use width="1.061" height="1.061" transform="translate(37.642 16.418) scale(.8346)" xlink:href="#New_Symbol"/><use width="1.061" height="1.061" transform="translate(43.468 17.782) scale(.8234)" xlink:href="#New_Symbol"/><use width="1.061" height="1.061" transform="translate(30.147 22.004) scale(.8518)" xlink:href="#New_Symbol"/><use width="1.061" height="1.061" transform="translate(25.55 52.2) scale(.8921)" xlink:href="#New_Symbol"/><use width="1.061" height="1.061" transform="matrix(.884 0 0 .884 35.034 54.358)" xlink:href="#New_Symbol"/><use width="1.061" height="1.061" transform="translate(27.773 20.603) scale(.8538)" xlink:href="#New_Symbol"/><use width="1.061" height="1.061" transform="matrix(.869 0 0 .869 20.703 18.81)" xlink:href="#New_Symbol"/><use width="1.061" height="1.061" transform="translate(35 39.322) scale(.8597)" xlink:href="#New_Symbol"/><use width="1.061" height="1.061" transform="translate(43.008 42.08) scale(.8542)" xlink:href="#New_Symbol"/><use width="1.061" height="1.061" transform="translate(32.133 28.647) scale(.8518)" xlink:href="#New_Symbol"/><use width="1.061" height="1.061" transform="translate(35.05 44.85) scale(.8681)" xlink:href="#New_Symbol"/><use width="1.061" height="1.061" transform="translate(41.757 35.106) scale(.8443)" xlink:href="#New_Symbol"/><use width="1.061" height="1.061" transform="translate(42.899 27.945) scale(.8328)" xlink:href="#New_Symbol"/><use width="1.061" height="1.061" transform="translate(40.993 29.105) scale(.8372)" xlink:href="#New_Symbol"/><use width="1.061" height="1.061" transform="translate(58.014 30.382) scale(.8224)" xlink:href="#New_Symbol"/><use width="1.061" height="1.061" transform="translate(62.599 34.694) scale(.8317)" xlink:href="#New_Symbol"/><use width="1.061" height="1.061" transform="translate(64.838 32.338) scale(.8282)" xlink:href="#New_Symbol"/><use width="1.061" height="1.061" transform="translate(65.12 18.003) scale(.8064)" xlink:href="#New_Symbol"/><use width="1.061" height="1.061" transform="translate(66.319 14.896) scale(.8077)" xlink:href="#New_Symbol"/><use width="1.061" height="1.061" transform="translate(64.597 12.786) scale(.8054)" xlink:href="#New_Symbol"/><use width="1.061" height="1.061" transform="translate(59.841 13.52) scale(.7973)" xlink:href="#New_Symbol"/><use width="1.061" height="1.061" transform="translate(53.894 17.845) scale(.8039)" xlink:href="#New_Symbol"/><use width="1.061" height="1.061" transform="matrix(.812 0 0 .812 50.483 20.285)" xlink:href="#New_Symbol"/><use width="1.061" height="1.061" transform="translate(48.472 24.781) scale(.8204)" xlink:href="#New_Symbol"/><use width="1.061" height="1.061" transform="translate(47.552 31.657) scale(.8318)" xlink:href="#New_Symbol"/><use width="1.061" height="1.061" transform="translate(50.07 35.584) scale(.8363)" xlink:href="#New_Symbol"/><use width="1.061" height="1.061" transform="translate(58.186 38.435) scale(.8383)" xlink:href="#New_Symbol"/><use width="1.061" height="1.061" transform="translate(59.916 42.52) scale(.8466)" xlink:href="#New_Symbol"/><use width="1.061" height="1.061" transform="translate(52.458 45.836) scale(.8545)" xlink:href="#New_Symbol"/><use width="1.061" height="1.061" transform="translate(39.324 46.693) scale(.8661)" xlink:href="#New_Symbol"/><use width="1.061" height="1.061" transform="matrix(.87 0 0 .87 31.538 42.955)" xlink:href="#New_Symbol"/><use width="1.061" height="1.061" transform="translate(30.056 37.154) scale(.8645)" xlink:href="#New_Symbol"/><use width="1.061" height="1.061" transform="translate(17.704 47.634) scale(.8975)" xlink:href="#New_Symbol"/><use width="1.061" height="1.061" transform="translate(12.798 5.069) scale(.8432)" xlink:href="#New_Symbol"/></svg>