<svg viewBox="0 0 823 907" xmlns="http://www.w3.org/2000/svg" xmlns:serif="http://www.serif.com/" fill-rule="evenodd" clip-rule="evenodd" stroke-linejoin="round" stroke-miterlimit="1.41421"><g serif:id="Layer 1"><path d="M656.4 851.3V905h3.8c3 0 5.6-2.5 5.6-5.7v-53.8h-3.7a5.7 5.7 0 0 0-5.7 5.7m-316 20.6L324 845.6h-11.3v.4l23 34.7v24.4h3.8c3.2 0 5.7-2.5 5.7-5.7v-18.7l23.6-34.7v-.4h-11.4l-17 26.3zm-76 24h-13.1v-41.2h13c14 0 20.2 10 20.5 20 .2 10.5-5.9 21.2-20.4 21.2m0-50.3h-22.6v59.5h22.6c20.8 0 30.1-15.2 29.8-30.2-.3-14.7-9.5-29.3-29.8-29.3m328.4 28L573 845.7h-11v59.5h3.8c3.2 0 5.7-2.5 5.7-5.7v-40l20 28.2h2l20.3-28.1v45.6h3.8c3.1 0 5.7-2.5 5.7-5.7v-53.8h-11l-19.6 27.9zm-156.6-22.3v36.6l-33.7-42.3h-7.3v59.5h3.9c3.1 0 5.7-2.5 5.7-5.7v-36.3l33.7 42h7.2v-59.5H442a5.7 5.7 0 0 0-5.7 5.7M799 869.7c-7.8-1.1-14.5-2.7-14.5-8.5 0-5.7 5.8-9 13.8-9 6.2 0 11.9 2.5 14.7 6.6l7.2-4.9c-5-8-13.6-10-22.2-10-10.7 0-23 4.8-23 17.1 0 12.8 11.3 15.7 23.1 17.3 8.4 1.1 15.2 3.4 15.2 9.8 0 7.5-7.9 9.9-15 9.9-6.9 0-14.3-2.6-18.5-9.8l-7.2 4.8c5.5 10 14.2 13.5 25.6 13.5 12.4 0 24.6-5 24.7-18.4 0-13.3-11.7-16.7-24-18.4M491.4 884l12.6-28.4 12.6 28.4h-25.2zm7.4-38.4L472 905.1h10.1l5.6-12.5H520l5.6 12.5h10.2L509 845.6h-10.4zM19.3 884l12.6-28.4L44.5 884H19.3zm7.4-38.4L0 905.1h10.1l5.6-12.5H48l5.7 12.5h10.1l-26.6-59.5H26.7zm699.3 8c6 0 11.5 2.5 15.4 6.4l6.5-6.5a30.8 30.8 0 0 0-52.8 21.9 31 31 0 0 0 52.8 21.8l-6.5-6.5a21.7 21.7 0 0 1-37.1-15.3c0-12 9.7-21.8 21.7-21.8m-608.4 24.5h-18v-23.8h18c15.7 0 15.7 23.8 0 23.8m0-32.6l-27.5.1v59.5h3.8c3.2 0 5.7-2.5 5.7-5.7v-12.6h18c28.5-.1 28.4-41.3 0-41.3m75.9 32.6h-18v-23.8h18c15.6 0 15.7 23.8 0 23.8m0-32.6l-27.5.1v59.5h3.8c3.1 0 5.7-2.5 5.7-5.7v-12.6h18c28.5-.1 28.4-41.3 0-41.3M284.1 425l-100-224.7a257.1 257.1 0 0 0 201.2 451.9L285.4 428l-1.4-3M348.7 0c-32.8 0-64.6 4-95 11.5L312.1 143A257 257 0 0 1 513.4 595L572 726.6A397.6 397.6 0 0 0 348.7 0" fill="#19212b" fill-rule="nonzero"/></g></svg>