<svg viewBox="0 0 640 130" xmlns="http://www.w3.org/2000/svg" fill-rule="evenodd" clip-rule="evenodd" stroke-linejoin="round" stroke-miterlimit="1.414"><path d="M86.984 39.29c17.944 0 34.507 5.887 47.882 15.833l.517-.621L86.984 0 38.548 54.576l.547.58C52.482 45.213 69.048 39.29 86.984 39.29M64.46 128.924l.794.51c5.356-6.771 10.35-11.894 17.503-17.02-2.748-1.75-4.588-2.675-7.537-4.122l-10.76 20.632z" fill="#40a8ba" fill-rule="nonzero"/><path d="M89.553 78.798l11.186 23.148c4.672-2.11 8.718-3.528 13.817-4.903 20.31-5.42 40.837-3.799 59.022 3.417l.42-.802-71.33-47.048-13.115 26.188zM0 99.657l.42.803c18.14-7.215 38.675-8.837 59.001-3.417 20.267 5.444 37.212 17.112 49.291 32.391l.827-.51-38.233-76.315L0 99.657zM458.698 80.045h36.909l-.015-7.133h-29.84V59.51h28.294v-7.027h-28.293V38.997h29.854v-7.043h-36.909v48.091zM375.498 31.856h-18.547v48.098l18.51.03c7.696 0 14.166-2.079 18.656-6.005 4.777-4.153 7.283-10.384 7.283-18.006 0-15.054-9.686-24.049-25.902-24.117m.142 41.056h-10.79v-33.93l11.464-.015c11.075 0 17.165 6 17.165 16.954 0 10.64-6.652 16.99-17.839 16.99M438.242 59.24c.504-.046 11.22-1.134 11.22-13.5 0-8.245-6.24-13.787-15.483-13.787h-24.957v48.001h7.637V59.547l10.66.03 12.658 20.377h8.898L435.36 59.413l1.006-.06s1.48-.076 1.876-.113m-4.158-6.322h-17.425V38.915h18.16c4.13 0 7.359 3.056 7.359 6.938 0 4.549-2.869 7.065-8.094 7.065M501.404 80.045h7.995l3.448-7.088.262-.09c4.234-1.315 8.7-2.02 12.937-2.02 4.383 0 8.552.63 12.703 1.915l.205.09 3.64 7.193h8.065L525.841 31.97l-24.437 48.076zm33.818-14.754l-1.166-.219c-2.723-.555-5.088-.787-8.01-.787-2.697 0-5.278.278-8.221.886l-1.103.233 9.24-19.35 9.26 19.237zM631.468 31.954v20.228h-26.6V31.856h-7.717V79.97h7.717V59.51h26.648v20.444h7.816v-48h-7.864zM557.161 55.688c0-11 6.75-17.315 18.498-17.315 6.134 0 10.843 1.3 12.63 1.893v-7.32c-1.366-.406-6.05-1.75-12.388-1.75-8.74 0-15.481 2.313-19.973 6.817-4.19 4.175-6.291 10.144-6.254 17.72.024 15.324 10.143 24.868 26.348 24.868 6.516 0 11.547-1.735 12.808-2.269V71.14c-1.644.512-5.85 1.578-12.847 1.578-11.81 0-18.822-6.367-18.822-17.029M224.642 67.859V31.856h-7.825v38.976c0 7.838 5.595 9.468 10.25 9.468h20.686V73.28h-18.285c-3.49 0-4.826-1.525-4.826-5.422M273.318 30.476c-15.737.036-24.403 8.919-24.403 25.003 0 16.006 8.678 25.294 24.462 25.294h.12c15.896-.015 24.357-9.108 24.357-25.393 0-16.06-8.746-24.904-24.536-24.904m.133 43.134c-11.102 0-16.516-6.284-16.516-18.23 0-12.066 5.729-18.448 16.561-18.448 10.902 0 16.217 6.044 16.217 18.448 0 11.946-5.315 18.23-16.262 18.23M176.865 55.688c0-11 6.774-17.315 18.5-17.315 6.136 0 10.866 1.3 12.632 1.893v-7.32c-1.324-.406-6.052-1.75-12.368-1.75-8.74 0-15.475 2.313-19.985 6.817-4.152 4.175-6.256 10.144-6.256 17.72.054 15.324 10.145 24.868 26.362 24.868 6.532 0 11.51-1.735 12.847-2.269V71.14c-1.662.512-5.91 1.578-12.863 1.578-11.796 0-18.869-6.367-18.869-17.029M339.819 57.017c0 10.473-5.135 16.45-14.08 16.45-8.358 0-13.35-6.149-13.35-16.457V31.856h-8.243v24.087c0 16.316 7.417 24.95 21.497 24.95 15.175 0 22.23-7.741 22.23-24.364V31.856h-8.1c0 3.087.046 17.555.046 25.161" fill="#40a8ba" fill-rule="nonzero"/></svg>