<svg viewBox="0 0 200 149" xmlns="http://www.w3.org/2000/svg" fill-rule="evenodd" clip-rule="evenodd" stroke-linejoin="round" stroke-miterlimit="1.414"><path d="M99.982 45.162c20.626 0 39.664 6.766 55.038 18.199l.594-.715L99.982 0 44.308 62.732l.629.665c15.388-11.426 34.429-18.235 55.045-18.235M74.092 148.19l.913.587c6.156-7.784 11.896-13.672 20.118-19.565-3.158-2.011-5.273-3.074-8.663-4.738l-12.368 23.715z" fill="#40a8ba" fill-rule="nonzero"/><path d="M102.936 90.573l12.858 26.608c5.37-2.426 10.02-4.056 15.881-5.636 23.345-6.231 46.94-4.367 67.842 3.927l.484-.922-81.99-54.079-15.075 30.102zM0 114.55l.483.922c20.85-8.293 44.454-10.157 67.818-3.928 23.296 6.259 42.773 19.67 56.657 37.232l.95-.587-43.946-87.718L0 114.55z" fill="#40a8ba" fill-rule="nonzero"/></svg>