<svg viewBox="0 0 1264 323" xmlns="http://www.w3.org/2000/svg" fill-rule="evenodd" clip-rule="evenodd" stroke-linejoin="round" stroke-miterlimit="1.4"><path d="M505.4 268a79.9 79.9 0 0 1-46 47.9 95.3 95.3 0 0 1-36 6.7 89.5 89.5 0 0 1-52.4-15.2 70 70 0 0 1-28.5-41.5h29.6a44.2 44.2 0 0 0 25.2 24.3 80 80 0 0 0 26.2 5c11 0 20.1-1.9 27.8-5.8a53.6 53.6 0 0 0 18.6-15c4.8-6 8.2-13 10.3-20.8a89 89 0 0 0 3.2-23.3v-18a80.3 80.3 0 0 1-24.5 21.5 65.8 65.8 0 0 1-33.8 8.8 82.5 82.5 0 0 1-61.4-26.3 90.1 90.1 0 0 1-18-28.6 94.3 94.3 0 0 1-6.5-35c0-12.5 2.2-24 6.5-35a86.9 86.9 0 0 1 45.1-48 81 81 0 0 1 34.3-7.2c12.7 0 24.2 3.1 34.6 9.3a78.3 78.3 0 0 1 24.8 22.4V67h27.3v163.5c0 13.7-2 26.3-6.4 37.6zm-26.6-139.9a66.1 66.1 0 0 0-12.7-20.5 57.8 57.8 0 0 0-18.5-13.8 52.1 52.1 0 0 0-45 0 54 54 0 0 0-18.4 13.8 68.8 68.8 0 0 0-16.7 45.5 67.2 67.2 0 0 0 16.7 45 53.2 53.2 0 0 0 63.4 13.7 59 59 0 0 0 18.5-13.8 67.8 67.8 0 0 0 17.4-44.9 67 67 0 0 0-4.7-25zM677 238.3v-27.6a75.8 75.8 0 0 1-24.7 22.6 66.5 66.5 0 0 1-34.6 9.3 82.5 82.5 0 0 1-61.4-26.3 90.1 90.1 0 0 1-18-28.6 94.3 94.3 0 0 1-6.5-35c0-12.5 2.2-24 6.5-35a86.9 86.9 0 0 1 45.1-48 81 81 0 0 1 34.3-7.2c12.7 0 24.2 3.1 34.6 9.3A78.4 78.4 0 0 1 677 94.1V66.8h27.3v171.5H677zm-5.7-109.8a64 64 0 0 0-31.2-34 53 53 0 0 0-45.1 0 55 55 0 0 0-18.3 13.7 66.6 66.6 0 0 0-16.7 45 65.2 65.2 0 0 0 16.7 44 55.9 55.9 0 0 0 41 18.5c8 0 15.4-1.7 22.4-5a60 60 0 0 0 18.5-13.5 63.4 63.4 0 0 0 17.4-44.1c0-8.6-1.6-16.9-4.7-24.6zM848.1 238.3v-18.6a59.7 59.7 0 0 1-21.3 16.6c-8.4 4-18 6-28.6 6a71 71 0 0 1-28-5.3 56.2 56.2 0 0 1-20.8-15c-5.7-6.4-9.9-14-12.8-22.8a92.6 92.6 0 0 1-4.3-29V66.8h28v104.6c0 13.8 3.6 24.8 10.8 33 7.2 8.2 17.7 12.3 31.5 12.3 6.2 0 12-1 17.5-3.3a42.7 42.7 0 0 0 23.7-23.5 45.2 45.2 0 0 0 3.5-17.8V67h28.3v171.5h-27.5zM1064.2 268a79.9 79.9 0 0 1-46 47.9 95.3 95.3 0 0 1-36 6.7 89.5 89.5 0 0 1-52.4-15.2 70 70 0 0 1-28.5-41.5H931a44.2 44.2 0 0 0 25.2 24.3 80 80 0 0 0 26.2 5c11 0 20.1-1.9 27.8-5.8a53.6 53.6 0 0 0 18.6-15c4.8-6 8.2-13 10.3-20.8a89 89 0 0 0 3.2-23.3v-18a80.3 80.3 0 0 1-24.5 21.5 65.8 65.8 0 0 1-33.8 8.8 82.5 82.5 0 0 1-61.4-26.3 90.1 90.1 0 0 1-18-28.6 94.3 94.3 0 0 1-6.5-35c0-12.5 2.2-24 6.5-35a86.9 86.9 0 0 1 45.1-48 81 81 0 0 1 34.3-7.2c12.7 0 24.2 3.1 34.6 9.3a78.4 78.4 0 0 1 24.6 22.3V66.8h27.3v163.5c.1 13.8-2 26.4-6.2 37.7zm-26.6-139.9a66.1 66.1 0 0 0-12.7-20.5 57.8 57.8 0 0 0-18.5-13.8 52.1 52.1 0 0 0-45 0 54 54 0 0 0-18.4 13.8 68.8 68.8 0 0 0-16.7 45.5 67.2 67.2 0 0 0 16.7 45 53.2 53.2 0 0 0 63.4 13.7A59 59 0 0 0 1025 198a67.8 67.8 0 0 0 17.4-44.9 69 69 0 0 0-4.7-25zM1229.4 227.5a86 86 0 0 1-50.9 14.8c-12.4 0-24-2.3-34.6-7a88.6 88.6 0 0 1-46.4-47.3 89.6 89.6 0 0 1-6.8-35.3A91.8 91.8 0 0 1 1116 89a89.6 89.6 0 0 1 27.3-19.3 80.6 80.6 0 0 1 65.9-.5 85.4 85.4 0 0 1 27.8 19.3 93.4 93.4 0 0 1 19.3 30.6c4.8 12 7.2 25.6 7.2 41h-144.2a66 66 0 0 0 6.8 23.8 60.9 60.9 0 0 0 31.8 29 56.1 56.1 0 0 0 20.6 3.8c12.2 0 22.6-2.8 31.1-8.3a54 54 0 0 0 19.8-23.3h30a81.2 81.2 0 0 1-30 42.4zm-5.5-111.7a63.5 63.5 0 0 0-12.8-14.8 55.2 55.2 0 0 0-34.3-12.8 56 56 0 0 0-34.1 12.4A65 65 0 0 0 1121 135h111.2a68 68 0 0 0-8.2-19zM255.1 283.5H28.4A28.3 28.3 0 0 1 .1 255.2V156a28.3 28.3 0 1 1 56.6 0v71h130L8.3 48.3a28.3 28.3 0 1 1 40.1-40L275.2 235a28.3 28.3 0 0 1-20 48.4zM255.1 141.8c-7.3 0-14.5-2.8-20-8.3l-85-85a28.3 28.3 0 1 1 40.1-40l85 85a28.3 28.3 0 0 1-20 48.3z" fill-rule="nonzero"/></svg>