<svg id="Art" xmlns="http://www.w3.org/2000/svg" viewBox="0 0 181 28"><defs><style>.cls-5{fill:#5f6368}</style></defs><path d="M21.9 7.4h1l2.8-2.8.1-1.2A12.8 12.8 0 0 0 5 9.6a1.6 1.6 0 0 1 1 0l5.7-1s.3-.5.4-.5a7.1 7.1 0 0 1 9.8-.7z" fill="#ea4335"/><path d="M29.8 9.6a12.8 12.8 0 0 0-4-6.2l-4 4a7.1 7.1 0 0 1 2.7 5.6v.7a3.6 3.6 0 1 1 0 7.1h-7.1l-.7.8v4.2l.7.7h7.1a9.3 9.3 0 0 0 5.3-16.9z" fill="#4285f4"/><path d="M10.3 26.5h7v-5.7h-7a3.5 3.5 0 0 1-1.5-.3l-1 .3-2.9 2.8-.2 1a9.2 9.2 0 0 0 5.5 1.9z" fill="#34a853"/><path d="M10.3 8a9.3 9.3 0 0 0-5.6 16.6l4-4.1a3.6 3.6 0 1 1 4.8-4.7l4.1-4.2A9.3 9.3 0 0 0 10.2 8z" fill="#fbbc05"/><path class="cls-5" d="M52.8 22.5a9.1 9.1 0 0 1-6.6-2.7 8.8 8.8 0 0 1-2.8-6.5 8.8 8.8 0 0 1 2.8-6.5A9.1 9.1 0 0 1 52.8 4 8.8 8.8 0 0 1 59 6.5l-1.8 1.9a6.4 6.4 0 0 0-4.5-1.8 6.3 6.3 0 0 0-4.7 2 6.5 6.5 0 0 0-2 4.7 6.5 6.5 0 0 0 2 4.7 6.7 6.7 0 0 0 9.4.1 5.3 5.3 0 0 0 1.3-3.1h-6v-2.6h8.5a8.1 8.1 0 0 1 .1 1.6 8 8 0 0 1-2.2 5.9 8.5 8.5 0 0 1-6.4 2.6zm19.7-1.7a6.1 6.1 0 0 1-8.4 0 5.7 5.7 0 0 1-1.8-4.2 5.7 5.7 0 0 1 1.8-4.3 6.1 6.1 0 0 1 8.4 0 5.7 5.7 0 0 1 1.8 4.3 5.7 5.7 0 0 1-1.8 4.2zM66 19.1a3.2 3.2 0 0 0 4.8 0 3.6 3.6 0 0 0 1-2.5 3.6 3.6 0 0 0-1-2.6 3.3 3.3 0 0 0-4.8 0 3.6 3.6 0 0 0-1 2.6 3.6 3.6 0 0 0 1 2.5zm19.7 1.7a6.1 6.1 0 0 1-8.5 0 5.7 5.7 0 0 1-1.7-4.2 5.7 5.7 0 0 1 1.7-4.3 6.1 6.1 0 0 1 8.5 0 5.7 5.7 0 0 1 1.7 4.3 5.7 5.7 0 0 1-1.8 4.2zM79 19.1a3.2 3.2 0 0 0 4.7 0 3.6 3.6 0 0 0 1-2.5 3.6 3.6 0 0 0-1-2.6 3.3 3.3 0 0 0-4.8 0 3.6 3.6 0 0 0-1 2.6 3.6 3.6 0 0 0 1 2.5zM94 28a5.2 5.2 0 0 1-3.3-1.1 6.1 6.1 0 0 1-2-2.5l2.3-1a3.8 3.8 0 0 0 1.2 1.6 2.9 2.9 0 0 0 1.8.6 3 3 0 0 0 2.4-.9 3.6 3.6 0 0 0 .8-2.6v-.9h-.1a3.8 3.8 0 0 1-3.1 1.4 5.4 5.4 0 0 1-4-1.7 5.8 5.8 0 0 1-1.7-4.2 5.8 5.8 0 0 1 1.7-4.3 5.4 5.4 0 0 1 4-1.7 4.3 4.3 0 0 1 1.8.4 3.7 3.7 0 0 1 1.3 1v-1h2.6v10.6a6.2 6.2 0 0 1-1.6 4.7 5.6 5.6 0 0 1-4 1.6zm.2-7.7a3 3 0 0 0 2.3-1 3.7 3.7 0 0 0 .9-2.6 3.8 3.8 0 0 0-1-2.6 2.9 2.9 0 0 0-2.2-1 3 3 0 0 0-2.4 1 3.6 3.6 0 0 0-1 2.6 3.6 3.6 0 0 0 1 2.5 3.1 3.1 0 0 0 2.4 1zm9.9-15.5V22h-2.6V4.8zm7.1 17.8a5.7 5.7 0 0 1-4.2-1.7 5.8 5.8 0 0 1-1.7-4.2 5.9 5.9 0 0 1 1.7-4.3 5.4 5.4 0 0 1 4-1.7 5 5 0 0 1 2 .4 4.7 4.7 0 0 1 1.5 1 7 7 0 0 1 1 1.2 7.2 7.2 0 0 1 .6 1.2l.3.7-8 3.3a3 3 0 0 0 2.8 1.8 3.4 3.4 0 0 0 3-1.7l2 1.4a6.6 6.6 0 0 1-2 1.8 5.4 5.4 0 0 1-3 .8zm-3.3-6.1l5.3-2.2a1.8 1.8 0 0 0-.8-1 2.7 2.7 0 0 0-1.4-.3 3 3 0 0 0-2.1 1 3.2 3.2 0 0 0-1 2.5zM130.1 22.5a8.2 8.2 0 0 1-8.3-8.4 8.2 8.2 0 0 1 8.3-8.4 7.5 7.5 0 0 1 6 2.6l-1.5 1.4a5.4 5.4 0 0 0-4.5-2 6.1 6.1 0 0 0-4.4 1.7 6.2 6.2 0 0 0-1.8 4.7 6.2 6.2 0 0 0 1.8 4.6 6.1 6.1 0 0 0 4.4 1.8 6.4 6.4 0 0 0 5-2.3l1.5 1.4a7.9 7.9 0 0 1-2.8 2.1 8.5 8.5 0 0 1-3.7.8zM140.4 22.1h-2V6h2zM143.8 12.4a5.8 5.8 0 0 1 8.2 0 5.8 5.8 0 0 1 1.6 4.2 5.8 5.8 0 0 1-1.6 4.2 5.8 5.8 0 0 1-8.2 0 5.8 5.8 0 0 1-1.6-4.2 5.8 5.8 0 0 1 1.6-4.2zm1.6 7.1a3.5 3.5 0 0 0 5 0 4 4 0 0 0 1.1-2.9 4 4 0 0 0-1-2.9 3.5 3.5 0 0 0-5.1 0 4 4 0 0 0-1.1 3 4 4 0 0 0 1 2.8zM165 22.1h-2v-1.5a3.9 3.9 0 0 1-1.5 1.4 4 4 0 0 1-2 .6 3.9 3.9 0 0 1-3.2-1.3 5 5 0 0 1-1-3.4v-6.8h2v6.4q0 3.1 2.8 3.1a2.5 2.5 0 0 0 2-1 3.8 3.8 0 0 0 .9-2.4v-6h2zM172 22.5a4.9 4.9 0 0 1-3.6-1.7 6 6 0 0 1-1.6-4.2 6 6 0 0 1 1.6-4.2 4.9 4.9 0 0 1 3.7-1.7 4.7 4.7 0 0 1 2.3.6 3.8 3.8 0 0 1 1.4 1.3h.1V6h2v16.1h-2v-1.5a3.8 3.8 0 0 1-1.6 1.4 4.7 4.7 0 0 1-2.2.5zm.4-1.9a3.3 3.3 0 0 0 2.5-1 4 4 0 0 0 1-3 4 4 0 0 0-1-2.9 3.4 3.4 0 0 0-5 0 4 4 0 0 0-1 3 4 4 0 0 0 1 2.8 3.3 3.3 0 0 0 2.5 1.1z"/></svg>