<svg viewBox="0 0 300 414" xmlns="http://www.w3.org/2000/svg" fill-rule="evenodd" clip-rule="evenodd" stroke-linejoin="round" stroke-miterlimit="1.41421"><g fill="#482d8d" fill-rule="nonzero"><path d="M283.3 303.3c0 7.4-6 13.4-13.3 13.4H30c-7.4 0-13.3-6-13.3-13.4V30c0-7.3 6-13.3 13.3-13.3h240c7.4 0 13.3 6 13.3 13.3v273.3zM270 0H30A30 30 0 0 0 0 30v273.3a30 30 0 0 0 30 30h240a30 30 0 0 0 30-30V30a30 30 0 0 0-30-30z"/><path d="M75 283.3l37.5-33.3L75 216.7v66.6zM210.5 148.2a53.6 53.6 0 0 0-39.7-14.9c-22.6 0-45.8 6-62.5 11.3V50H75v144.6l23.5-10.7c.4-.2 38.4-17.2 72.3-17.2 17 0 20.7 9.3 20.9 17v99.6H225v-100a52 52 0 0 0-14.5-35zM166.7 104.2H200C215 87 222.7 68.9 225 50h-33.3c-3.7 18.9-12 37-25 54.2zM0 367h12.3v17h15v-17h12.4v45.5H27.4v-18.3H12.3v18.3H0v-45.4zM55.5 367h32.4v10.3H67.8v7.3H82v9.6H67.8v8.4H89v10H55.5V367zM119.8 387.4c5 0 7.2-1.4 7.2-5.2 0-3.8-2.2-5.2-7.2-5.2h-5.3v10.4h5.3zm-17.4-20.3h17.8c11.7 0 18.8 3.8 18.8 14.8 0 7-3 11.2-9 13.2l9.7 17.4h-13l-8.8-15.8h-3.4v15.8h-12v-45.4zM184.2 389.8c0-8.4-3.7-13.5-10-13.5-6.5 0-10.1 5.1-10.1 13.5 0 8.3 3.6 13.7 10 13.7s10-5.4 10-13.7zm-32.4 0c0-16.6 11.4-23.6 22.4-23.6 10.9 0 22.2 7 22.2 23.6s-11.3 23.6-22.2 23.6c-11 0-22.4-7-22.4-23.6zM210.1 367h12.3v16.5l12.5-16.4h14.3L233.9 385l16.6 27.5h-13.9L226 394.3l-3.5 4v14.2h-12.3v-45.4zM261.9 394.3V367H274v27.1c0 6.3 2 9.1 7 9.1 4.9 0 6.9-2.8 6.9-9V367h12v27.2c0 12-5.8 18.9-19 18.9-13.3 0-19.1-6.9-19.1-19z"/></g></svg>