<svg viewBox="0 0 470 542" xmlns="http://www.w3.org/2000/svg" fill-rule="evenodd" clip-rule="evenodd" stroke-linejoin="round" stroke-miterlimit="1.41421"><path d="M469.3 406.4L234.6 541.9 0 406.4v-271L234.6 0l234.7 135.5v270.9z" fill="#0e6bb1" fill-rule="nonzero"/><path d="M157.2 330.9l31-18.8c6 10.6 11.4 19.6 24.4 19.6 12.5 0 20.4-5 20.4-24V178.5h38v129.9c0 39.4-23 57.4-56.8 57.4a59 59 0 0 1-57-34.8zM291.7 326.8l31-18c8.2 13.4 18.8 23.2 37.5 23.2 15.8 0 25.8-8 25.8-18.8 0-13-10.3-17.7-27.7-25.3l-9.5-4c-27.5-11.7-45.7-26.4-45.7-57.4 0-28.5 21.8-50.3 55.8-50.3 24.1 0 41.5 8.4 54 30.5l-29.6 19c-6.5-11.7-13.6-16.3-24.4-16.3-11.2 0-18.3 7-18.3 16.3 0 11.4 7.1 16 23.4 23l9.5 4.2c32.4 13.8 50.6 28 50.6 59.8 0 34.2-27 53-63 53-35.4 0-58.2-16.9-69.4-39z" fill="#fff" fill-rule="nonzero"/><path d="M234.6 541.9l234.7-135.5H0l234.6 135.5z" fill="#333433" fill-rule="nonzero"/></svg>