<svg id="Layer_1" data-name="Layer 1" xmlns="http://www.w3.org/2000/svg" viewBox="0 0 825.6 176"><defs><style>.cls-1{fill:#1c85e8}</style></defs><g id="New_Symbol" data-name="New Symbol"><path class="cls-1" d="M134.5 210c0-47.1 32.4-65.7 61.3-65.7 30.8 0 59.8 18.4 59.8 62.8 0 47.5-32.4 65.6-61.3 65.6-30.8 0-59.8-19.7-59.8-62.7zm87 1c0-41.8-7.2-59.2-26.9-59.2-17.3 0-26.1 12.2-26.1 54.4 0 41.8 6.8 59 26.9 59 17.7 0 26.2-12 26.2-54.1z" transform="translate(-134.5 -134.5)"/><path class="cls-1" d="M134.4 43.5"/><path class="cls-1" d="M373.1 223.6a46.3 46.3 0 0 1 46.8-48.5c24.4 0 39.8 12 40.6 43.6a1.1 1.1 0 0 1-1 1.1h-57a1.1 1.1 0 0 0-1 1.2c.8 28.4 11.8 36.3 30 36.3a53.1 53.1 0 0 0 22-4.8 1 1 0 0 1 1.3.3l2.4 2.8a1 1 0 0 1 0 1.5 52.6 52.6 0 0 1-37.3 15.6c-31.2 0-46.8-18.6-46.8-49zm28.3-10.6l30.7-1.6c0-21.7-2.9-29.6-13.6-29.6-9.2 0-16.3 8.7-17 31.2zM674.8 224.2c0-34.4 24.3-49.1 48.5-49.1 26 0 48.7 15.6 48.7 48.2 0 34.4-24 49.4-48.7 49.4-26 0-48.5-15.8-48.5-48.5zm67.1.9c0-36.2-7-43-19.1-43-11.3 0-18 8.2-18 39 0 36.7 6 44.5 19 44.5 10.8.1 18.1-6.2 18.1-40.6zM781.6 224.2c0-34.4 24.4-49.1 48.5-49.1 26 0 48.7 15.6 48.7 48.2 0 34.4-24 49.4-48.7 49.4-26 0-48.5-15.8-48.5-48.5zm67.2.9c0-36.2-7-43-19.2-43-11.3 0-18 8.2-18 39 0 36.7 6 44.5 19 44.5 10.8.1 18.2-6.2 18.2-40.6zM534.1 175c-13 0-24.9 6-34.4 12.8h-.7l.3-11.3a1.4 1.4 0 0 0-1.5-1.4l-25 2.8a1.5 1.5 0 0 0-1.4 1.4v89.8a1.4 1.4 0 0 0 1.4 1.4h25.7a1.4 1.4 0 0 0 1.4-1.4v-75a77.5 77.5 0 0 1 16.7-2.4c8.4 0 12.3 3.4 12.3 14.4v63a1.4 1.4 0 0 0 1.4 1.4h25.9a1.4 1.4 0 0 0 1.4-1.4v-70c0-16.1-8.2-24-23.5-24zM663 157.5c0-9.2.2-17.7.4-21.2a1.7 1.7 0 0 0-1.8-1.8l-25.8 3a1.5 1.5 0 0 0-1.4 1.4V164c0 6.5.4 13 .4 13a51.9 51.9 0 0 0-13.6-2c-28 0-52 15-52 52.2 0 32.6 17.4 45.5 35.1 45.5 12.6 0 22.6-5 30.3-11.7h.7l-.3 10a1.7 1.7 0 0 0 1.9 1.7l24.6-2.8a1.7 1.7 0 0 0 1.4-1.6zm-28.6 97c-2.8 1.2-7.7 4-15 4-13.6 0-20.7-9.1-20.7-37.2 0-29.6 9-39 21.8-39 6.6 0 11 3.7 14 7.5zM945.4 175c-10.4 0-20.6 8-26.1 13.9h-.8l.4-12a1.7 1.7 0 0 0-1.9-1.8l-24.7 2.8a1.5 1.5 0 0 0-1.3 1.5v89.5a1.7 1.7 0 0 0 1.7 1.7h25a1.7 1.7 0 0 0 1.7-1.7v-72.7c2.6-2.3 6.7-4.6 9.9-4.6 1.6 0 2.7.3 3.8 2.3 3.4 5.5 6 8.7 13.7 8.7 7 0 13.3-5.5 13.3-14 0-8.9-6.1-13.5-14.7-13.5zM327.5 175c-12.5 0-22.6 6-30 12.4h-1l.4-10.7a1.6 1.6 0 0 0-1.8-1.6l-24.8 2.8a1.5 1.5 0 0 0-1.3 1.4V309a1.5 1.5 0 0 0 1.6 1.4l25.5-2.8a1.5 1.5 0 0 0 1.3-1.5v-24.3l-.1-10.9a60.5 60.5 0 0 0 13.6 1.8c29.9 0 51.7-16.3 51.7-53.6 0-32.7-18-44-35-44zm-16 90.5a18.3 18.3 0 0 1-14-6.4v-65.2c2.8-1 7.3-3.2 14.4-3.2 13.7 0 21.4 9 21.4 34.5 0 32.8-7.6 40.3-21.7 40.3z" transform="translate(-134.5 -134.5)"/></g></svg>