<svg viewBox="0 0 3850 890" xmlns="http://www.w3.org/2000/svg" fill-rule="evenodd" clip-rule="evenodd" stroke-linejoin="round" stroke-miterlimit="1.4"><path d="M1123.6 105.5H1332c149 0 251.5 76.7 251.5 207.9v1.9c0 142.8-122.9 216.6-264.1 216.6h-145.6v253.5h-50.3V105.5h.1zm198.8 379.8c125.8 0 210.9-66.1 210.9-167.1v-1.9c0-107.8-83.2-164.2-205.1-164.2h-154.3v333.2h148.5zm276.9 155.9v-1.9c0-102.9 88.3-161.1 216.4-161.1 68.9 0 116.4 8.7 164 21.3v-21.3c0-100-61.1-151.4-163-151.4-60.2 0-109.7 16.5-155.3 39.8l-17.5-41.7c54.3-25.2 107.7-42.7 175.6-42.7 67 0 120.3 18.4 156.2 54.3 33 33 50.5 78.6 50.5 139.7v308.6h-46.6v-82.5c-34 47.5-95.1 94.1-189.2 94.1-92.1.1-191.1-52.3-191.1-155.2zm381.4-41.7v-56.3a654.7 654.7 0 0 0-167.9-22.3c-104.8 0-163 46.6-163 115.5v1.9c0 71.8 67.9 113.5 143.6 113.5 100.9.1 187.3-62.1 187.3-152.3zm106.8-308.9h47.5v140.7c38.8-88.3 145.4-140.2 243.7-140.2v44.1h-4.8c-114.5 0-238.9 86.4-238.9 247.4v202.8h-47.5V290.6zm351.3-.6V131.8h47.6V290H2660v43.7h-173.7v319.2c0 70.8 41.7 96.1 99 96.1 24.3 0 44.6-4.9 72.8-17.5v44.6a182.2 182.2 0 0 1-80.5 17.5c-76.7 0-138.8-41.7-138.8-135.9V333.6m370.8 211.8v-1.9c0-135.5 107.6-253 245.5-253 90.6 0 147.3 41.7 192.6 89.1l-33 34.1c-41.5-42.6-88.8-79.6-160.5-79.6-109.5 0-194.5 91.9-194.5 207.5v1.9c0 116.5 87.8 209.4 198.3 209.4 68 0 120.9-35.1 161.5-80.5l32.1 28.4c-49.1 55.9-107.6 95.7-196.4 95.7-138.9 0-245.6-115.6-245.6-251.1zm493-467.9h48v708h-48v-708zm97.2 467v-1.9c0-140.2 98.3-252 228.6-252 135.1 0 221.1 109.9 221.1 253 0 8.5 0 11.4-1 18.9h-399.6c8.5 120.3 94.5 190.4 188.9 190.4 74.6 0 125.6-33.2 165.3-75.8l32.1 28.4c-49.1 53.1-106.7 91-199.3 91-126.5 0-236.1-101.4-236.1-252zm399.6-23.7c-6.6-97.6-62.3-187.6-172.9-187.6-95.4 0-169.1 80.5-177.6 187.6h350.5zM2712.6 289.9h48v495.6h-48V289.9zm0-158.4h48v78.4h-48v-78.4z" fill-rule="nonzero"/><g fill="#00aeef" fill-rule="nonzero"><path d="M890 445l-236.9 50.9-32.9-50.9 32.9-50.9L890 445z"/><path d="M759.7 130.3L556.2 445l203.5 314.6L445 556.2 130.3 759.6 333.8 445 130.3 130.3 445 333.7l314.7-203.4z"/><path d="M445 620.2l50.9 32.9L445 890l-50.9-236.9 50.9-32.9zM445 0l50.9 236.9-50.9 32.9-50.9-32.9L445 0zM236.9 394.1l32.9 50.9-32.9 50.9L0 445l236.9-50.9z"/></g></svg>