<svg xmlns="http://www.w3.org/2000/svg" width="1000" height="758.99463"><path d="M1000 326H636v-93h364v93z" style="marker:none" fill="#e669a2" color="#000" overflow="visible"/><path d="M953 326H636V93h317v233z" style="marker:none" fill="#f3be26" color="#000" overflow="visible"/><path d="M822 326H636V0h186v326z" style="marker:none" fill="#ee9c34" color="#000" overflow="visible"/><path d="M859 326H636V36h223v290z" style="marker:none" fill="#f3bc87" color="#000" overflow="visible"/><path d="M636 36v290h186V36H636z" style="marker:none" fill="#e3721c" color="#000" overflow="visible"/><path d="M450 326h186v46H450v-46z" style="marker:none" fill="#ad1b02" color="#000" overflow="visible"/><path d="M636 93v233h223V93H636z" style="marker:none" fill="#e88d14" color="#000" overflow="visible"/><path d="M636 93v233h186V93H636z" style="marker:none" fill="#d85604" color="#000" overflow="visible"/><path d="M752 326H636V186h116v140z" style="marker:none" fill="#c14303" color="#000" overflow="visible"/><path d="M636 233v93h317v-93H636z" style="marker:none" fill="#db4e18" color="#000" overflow="visible"/><path d="M636 233v93h223v-93H636z" style="marker:none" fill="#d1390d" color="#000" overflow="visible"/><path d="M636 233v93h186v-93H636z" style="marker:none" fill="#c22303" color="#000" overflow="visible"/><path d="M636 233v93h117v-93H636z" style="marker:none" fill="#ad1b02" color="#000" overflow="visible"/><path d="M677 501c-32 6-49 30-49 71 0 43 23 71 56 71 16 0 30-6 60-21v35c-36 17-57 21-86 21-31 0-54-8-71-27a96 96 0 0 1-29-69c0-60 46-102 111-102 43 0 73 21 73 49 0 19-14 33-34 33-11 0-19-4-31-10M518 582c29-36 40-51 40-69 0-17-14-33-34-33-11 0-22 6-27 12v74l-47 63V486h-45l-75 123V486h-25l-68 15v18l37 3v153h47l72-118v118h53M94 651h10c38 0 59-23 59-69 0-39-17-60-48-60-4 0-11 0-21 2v127zm0 83l31 7v18H3v-18l28-7V522H0v-18l74-22h20v25c34-21 46-25 64-25 41 0 72 38 72 91 0 61-41 102-105 102l-31-1"/></svg>