<svg id="Layer_1" data-name="Layer 1" xmlns="http://www.w3.org/2000/svg" viewBox="0 0 324 45.2"><defs><style>.cls-1{fill:#e2231a}.cls-2{fill:#474c55}</style></defs><path class="cls-1" d="M5.5 29.1A18.3 18.3 0 0 1 22.6 4.3a17.4 17.4 0 0 1 2.6.2l-2 2h-.6a16 16 0 0 0-16 16.1A16.4 16.4 0 0 0 7 27h14l-5.8 11 14.2-14.3H10.2L32 2a22.6 22.6 0 0 0-21 39.9L17.5 29z"/><path class="cls-1" d="M34.4 3.3L27.6 16h12A18.3 18.3 0 0 1 20 40.7l2-2h.7a16 16 0 0 0 16-16 18.2 18.2 0 0 0-.6-4.5H24l5.9-11-14.4 14.3h19.3L13.3 43.2a22.6 22.6 0 0 0 21-39.9z"/><path class="cls-2" d="M56.4 36.5l2-2.8a1 1 0 0 1 1.5-.2 9.1 9.1 0 0 0 6.1 2.6 4.4 4.4 0 0 0 4.4-4.2c0-2.2-1.5-3.7-4.2-5.5-3.3-2.2-7.2-5-7.2-10S62.5 6 70.3 6A13.7 13.7 0 0 1 79 9.2a1.4 1.4 0 0 1 .2 2l-2 2.8c-.4.6-1 .6-1.7.1a8.2 8.2 0 0 0-5.6-2.2 4 4 0 0 0-4.2 4c0 2 1.3 3 4.3 5 3.3 2.1 7.7 4.9 7.7 10.3 0 5.9-4.6 10.7-12 10.7a13.9 13.9 0 0 1-9.4-3.9c-.3-.3-.6-.7 0-1.5zM80.9 40.1L99.6 6.6a1 1 0 0 1 .9-.6h.4a.8.8 0 0 1 .7.6l9.2 33.5a1 1 0 0 1-1 1.3h-4.3a1.1 1.1 0 0 1-1.3-1L103 35H90.5l-2.8 5.5a1.8 1.8 0 0 1-1.6 1h-4.6c-.7 0-1-.6-.6-1.3zm20.5-10.6L99 18.6h-.1l-5.4 11zM120.3 7.5a1.1 1.1 0 0 1 1-1h5a.8.8 0 0 1 .7 1l-3 21a8.7 8.7 0 0 0 0 1.6c0 3.3 1.6 5.3 5 5.3 4.1 0 6.4-2.7 7-6.9l3-21a1 1 0 0 1 1-1h5a.8.8 0 0 1 .7 1l-3 21.4c-1 7.5-6.3 13-14.1 13-6.7 0-11.4-4.5-11.4-11a14 14 0 0 1 .2-2zM169.7 6a13.4 13.4 0 0 1 10.4 4.7 1 1 0 0 1-.2 1.4l-2.7 2.6a1.1 1.1 0 0 1-1.7 0 9 9 0 0 0-6.2-2.5c-6 0-11.1 6.2-11.1 13.3 0 5.3 2.8 9.8 7.6 9.8a10.3 10.3 0 0 0 6.8-2.9 1 1 0 0 1 1.6 0l2.6 3.3a1.2 1.2 0 0 1-.2 1.3 16 16 0 0 1-11.3 4.8c-8.6 0-14.2-6.9-14.2-15.5 0-11.6 8.3-20.3 18.6-20.3zM189.4 7.5a1 1 0 0 1 1-1h18.4a.8.8 0 0 1 .8 1l-.6 4a1 1 0 0 1-1 1h-12.8l-1.1 8.2h10.5a.8.8 0 0 1 .8 1l-.6 4a1.1 1.1 0 0 1-1 1h-10.6l-1.2 8.7h12.8c.5 0 .7.5.7 1l-.5 4.1a1 1 0 0 1-1 1h-18.5a.7.7 0 0 1-.7-1z"/><path class="cls-1" d="M221.4 7.5a1.1 1.1 0 0 1 1-1h2.1a.8.8 0 0 1 .8 1L221 38h12.7a.8.8 0 0 1 .7 1l-.2 1.4a1.1 1.1 0 0 1-1 1h-15.7a.8.8 0 0 1-.7-1zM238.5 40.1l18.3-33.5a1 1 0 0 1 .9-.6h.4a.7.7 0 0 1 .7.6l8.9 33.5a1 1 0 0 1-1 1.3h-2a.7.7 0 0 1-.8-.5l-2-8.3h-15.5L242 41a1 1 0 0 1-.9.5h-2.1c-.7 0-1-.6-.6-1.3zM261 29.6l-4-16.4h-.3l-8.5 16.4zM291.8 23.9a7.5 7.5 0 0 1 4.3 6.8c0 6-4.4 10.7-11.3 10.7h-10.3a.8.8 0 0 1-.7-1l4.6-33a1.1 1.1 0 0 1 1-1h10a7.7 7.7 0 0 1 8 8 10 10 0 0 1-5.6 9.2zM285.5 38c3.5 0 6.4-3.2 6.4-7a5.2 5.2 0 0 0-5.4-5.5h-7l-1.7 12.5zm1.5-16c3.7 0 6-2.9 6-7.2 0-3-1.4-5-4.3-5h-6.9l-1.7 12.3zM302.2 36.2l.8-.9c.6-.6 1-.8 1.6-.2 1.5 1.3 3.2 3.5 7.4 3.5a6 6 0 0 0 6.2-6c0-3.2-2.3-5-6.4-7.4s-6.7-4.5-6.7-9c0-4.3 2.6-10.1 10.8-10.1a12.8 12.8 0 0 1 7.7 2.5c.3.2.7.8 0 1.7l-.5.8c-.5.7-1 .9-1.6.4a10.2 10.2 0 0 0-6-2 6.5 6.5 0 0 0-6.6 6.2c0 2.8 1.9 4.6 5 6.3 4.7 2.6 8.4 5 8.4 10.2 0 5.5-4 9.7-11 9.7a12.7 12.7 0 0 1-9.2-4.2c-.4-.4-.6-.9 0-1.5z"/></svg>