<svg xmlns="http://www.w3.org/2000/svg" viewBox="0 0 500 143"><path fill="#95BF47" d="M107 27l-1-1-11-1-8-8h-3l-4 1c-3-7-7-14-15-14h-1c-2-3-5-4-7-4-18 0-27 23-29 34l-13 4c-4 1-4 1-4 5L0 125l80 14 43-9-16-103zm-32-8l-7 2v-1L67 9c4 1 6 5 8 10zm-13-9l2 12v1l-14 4c2-10 8-15 12-17zm-5-5l2 1c-6 2-12 9-15 23l-11 3C36 22 44 5 57 5z"/><path fill="#5E8E3E" d="M106 26l-11-1-8-8h-1l-6 123 43-10-15-103-2-1z"/><path fill="#FFF" d="M65 50l-5 16s-5-3-11-3c-8 0-9 5-9 7 0 7 19 10 19 27 0 13-8 21-20 21-13 1-20-8-20-8l4-12s7 6 13 6c4 0 5-3 5-5 0-10-15-10-15-26 0-13 9-25 28-25 7 0 11 2 11 2z"/><path d="M173 80c-4-3-7-5-7-7 0-4 4-6 8-6 6 0 11 2 11 2l4-12s-4-3-14-3c-15 0-25 9-25 21 0 7 4 12 11 15 5 3 7 5 7 9 0 3-3 5-8 5-7 0-14-3-14-3l-4 12s6 4 17 4c15 0 26-8 26-21 0-8-5-13-12-16zM234 54c-8 0-14 4-18 9h-1l7-34h-17l-16 87h16l6-30c2-11 8-18 13-18 4 0 6 3 6 6l-1 8-6 34h17l6-35 1-11c0-10-5-16-13-16zM286 54c-21 0-34 19-34 39 0 13 8 24 23 24 20 0 34-18 34-39 0-12-7-24-23-24zm-9 50c-5 0-8-5-8-11 0-10 5-26 14-26 6 0 8 5 8 10 0 11-5 27-14 27zM352 54c-11 0-18 10-18 10l1-9h-15l-3 23-12 62h17l4-25h1s3 2 10 2c19 0 32-21 32-41 1-12-5-22-17-22zm-16 50c-5 0-7-2-7-2l3-16c2-11 7-18 13-18 5 0 7 5 7 9 0 11-7 27-16 27zM394 30c-6 0-10 4-10 10 0 5 3 8 8 8s10-3 10-10c0-5-3-8-8-8zM370 116h17l11-60h-17zM442 55h-12v-2c1-6 5-11 10-11l6 1 3-14-9-1c-6 0-12 2-17 5-5 5-8 12-9 20l-1 2h-8l-2 13h8l-9 48h16l9-48h12l3-13zM482 56l-15 41-4-41h-18l10 55v2c-2 4-6 8-10 11l-9 4 5 15c3-1 10-4 16-9 8-8 15-19 22-34l21-44h-18z"/></svg>