<svg xmlns="http://www.w3.org/2000/svg" viewBox="0 0 110 125"><path d="M96 24l-1-1-10-1-8-7h-2l-4 1c-2-6-6-12-13-12h-1c-2-3-4-4-6-4-16 0-24 20-26 30l-11 4c-4 1-4 1-4 4L0 111l71 14 39-9-14-92zm-29-7l-6 2v-1L60 8c3 1 6 5 7 9zM55 9l2 11-13 4c3-9 7-13 11-15zm-5-5l2 1c-5 2-10 9-12 21l-10 3c2-10 9-25 20-25z" fill="#95bf47"/><path d="M95 23l-10-1-8-7h-1l-5 110 39-9-14-92-1-1z" fill="#5e8e3e"/><path d="M58 45l-5 14s-4-3-9-3c-7 0-8 5-8 6 0 7 17 9 17 24 0 12-7 20-18 20-12 0-18-8-18-8l3-11s7 6 12 6c4 0 5-3 5-5 0-8-14-9-14-22 0-12 9-23 25-23 7 0 10 2 10 2z" fill="#fff"/></svg>