<svg id="logo.fw-Page_x25_202" xmlns="http://www.w3.org/2000/svg" viewBox="0 0 521 146"><style>.st1{fill:#5cdbdd}.st2{fill:#333}</style><g id="Layer_x25_201"><path d="M69.6 55.1l-18.4 2.1-21.3 21.2c-3.8 3.8-8.2 2.3-7.7 3.1l20.4-1.8 21.9-21.8c1.5-1.4 3.2-2.3 5.1-2.8z" opacity=".4" fill="#5cdbdd"/><path class="st1" d="M60.1 18.1L14.6 63.3a10.6 10.6 0 0 0 0 15.1c4.2 4.2 11 4.2 15.2 0l45.5-45.2a10.6 10.6 0 0 0 0-15.1c-4.2-4.1-11-4.2-15.2 0zM64.5 57.9L19 103.1a10.6 10.6 0 0 0 0 15.1c4.2 4.2 11 4.2 15.2 0L79.7 73a10.6 10.6 0 0 0 0-15.1 11 11 0 0 0-15.2 0z"/><g><path class="st2" d="M109.4 101.7a40.5 40.5 0 0 0 19.1 4.5c16.4 0 25.6-7.9 25.6-20 0-10.2-6.1-16.1-17.9-20.4-9.2-3.5-13.4-6.1-13.4-11.7 0-5.1 4.1-9.3 11.7-9.3a26 26 0 0 1 14.1 4.1l2.9-8.8a32 32 0 0 0-16.7-4c-14.9 0-23.7 8.5-23.7 19.5 0 8.2 5.6 14.8 18.2 19.3 9.4 3.4 13.1 6.5 13.1 12.4 0 5.8-4.4 10.2-13.6 10.2-6.4 0-12.8-2.5-16.5-4.8l-2.9 9zM179 105V37.2h-11.7V105H179zm-5.8-95.5c-4.4 0-7.4 3.3-7.4 7.4s2.8 7.2 7.1 7.2c4.7 0 7.5-3.2 7.5-7.2a7 7 0 0 0-7.2-7.4zM199.5 24.8v12.8h-10.7v8.7h10.7v37.3c0 9 1.4 15 4.6 18.2a19 19 0 0 0 13.2 4.4c4.9 0 8.7-.7 11.1-1.4l-.6-8.1c-1.9.6-3.9.9-7.3.9-7 0-9.4-4.9-9.4-13.6V46.2h18v-8.7h-18V21.1l-11.6 3.7zM293.7 72.5c.3-1.4.4-3.2.4-5.6 0-12.2-5.6-31.1-28.4-31.1-20.4 0-32.4 15.6-32.4 35.6 0 21.6 12.4 34.8 34 34.8 11.1 0 18.8-2.1 23-3.9l-2.2-8.5c-4.4 2.1-10 3.7-19.1 3.7-12.9 0-23.7-7.3-24-25h48.7zm-48.5-8.7c1-8.3 6.5-19.4 19.5-19.4 14.3 0 17.8 11.9 17.7 19.4h-37.2zM305.8 133.1h11.7V96.5h.3c4.3 6.2 12.6 9.7 22 9.7C356.6 106.2 371 95 371 70c0-21-11.6-33.9-29-33.9-11.7 0-20.2 4.2-25.3 12h-.3l-.7-10.8h-10.5c.3 6.5.6 13.6.6 22.3v73.5zM317.5 66c0-1.6.4-3.4.9-4.9a20.3 20.3 0 0 1 19.7-16.2c13.7 0 21.3 12 21.3 25.8 0 16-8 26.9-21.7 26.9a20 20 0 0 1-19.5-14.8c-.4-1.6-.6-3.3-.6-5.2l-.1-11.6zM440 72.5c.3-1.4.4-3.2.4-5.6 0-12.2-5.6-31.1-28.4-31.1-20.4 0-32.4 15.6-32.4 35.6 0 21.6 12.4 34.8 34 34.8 11.1 0 18.8-2.1 23-3.9l-2.2-8.5c-4.4 2.1-10 3.7-19.1 3.7-12.9 0-23.7-7.3-24-25H440zm-48.5-8.7c1-8.3 6.5-19.4 19.5-19.4 14.3 0 17.8 11.9 17.7 19.4h-37.2zM449.2 105h11.7V63.5A18.4 18.4 0 0 1 479 44.8c12.1 0 16.3 9.3 16.3 20.4V105H507V63.9c0-23-14-27.8-23.8-27.8-11.7 0-19.8 5.4-23.2 11.2h-.3l-.7-10.1h-10.4c.4 5.6.6 11.2.6 18.3V105z"/></g></g></svg>