<svg viewBox="0 0 2068 539" xmlns="http://www.w3.org/2000/svg" fill-rule="evenodd" clip-rule="evenodd" stroke-linejoin="round" stroke-miterlimit="1.41421"><path d="M0 480.1l32.5-38.9c22.5 18.6 46 30.4 74.5 30.4 22.5 0 36-9 36-23.6v-.7c0-13.9-8.5-21-50.2-31.7C42.5 402.7 10 388.8 10 339.2v-.7c0-45.3 36.4-75.3 87.4-75.3 36.4 0 67.4 11.4 92.8 31.8l-28.6 41.4c-22.1-15.4-43.9-24.7-65-24.7-21 0-32 9.7-32 21.8v.7c0 16.4 10.7 21.8 53.8 32.8 50.7 13.2 79.3 31.4 79.3 75v.7c0 49.6-37.9 77.4-91.7 77.4-37.9 0-76-13.2-106-40zM329.8 392.7c27.5 0 43.6-16.4 43.6-37.8v-.7c0-24.6-17.2-37.8-44.6-37.8h-42.5v76.3h43.5zm-98.4-126h102c59.6 0 95.6 35.4 95.6 86.4v.7c0 57.8-45 87.8-101 87.8h-41.7v75h-55V266.7zM564.6 412l-33.2-81-33.2 81h66.4zm-57.8-147h50.7l107 251.5h-57.4l-22.9-56H478.6l-22.8 56h-56l107-251.5zM801.1 388c26.8 0 42.1-14.2 42.1-35.2v-.8c0-23.5-16.4-35.6-43.2-35.6h-54.6V388h55.7zM690.5 266.9h114.2c31.7 0 56.3 8.9 72.7 25.3 14 14 21.5 33.5 21.5 57v.8a77.6 77.6 0 0 1-53.6 77.4l61 89.2h-64.2l-53.5-79.9h-43.2v80h-55V266.7zM1278 406.3c46.4 0 77.8-24.3 77.8-61.4v-.7c0-39.6-30.7-60.3-75.6-60.3h-70.7v122.4h68.5zm-87-139.5h90.6c55 0 92.8 28.2 92.8 76.3v.7c0 52.5-45.3 79.6-97.4 79.6h-67.5v93.1H1191V266.8zM1671.5 480.1l12.2-13.9c27.4 25.4 52.8 37.1 89.5 37.1 37.5 0 63.2-21 63.2-49.6v-.7c0-26.4-14-41.7-70.7-53.1-60-12.2-84.2-32.5-84.2-70.3v-.7c0-37.1 33.9-65.7 80.3-65.7 36.4 0 60.3 10 85.6 30.3l-11.8 14.7a107.5 107.5 0 0 0-74.5-28.2c-36.8 0-61 21-61 47v.8c0 26.4 13.5 42.4 72.7 54.6 57.9 11.8 82.1 32.4 82.1 68.8v.7c0 40.4-34.6 68.2-82.8 68.2-40 0-70.6-13.2-100.6-40zM1962 283.9h-87.2v-17.1h192.7v17.1h-87v232.6h-18.6V284zM991.3 371.9l86.5-105.1h67l-101.4 118.6 108.8 131.1h-70.7L991.3 405v111.5h-54.9V266.8h55v105z" fill="#55555a" fill-rule="nonzero"/><path d="M1525.7 484.8a87.5 87.5 0 1 1 0-175 87.5 87.5 0 0 1 0 175zm88.8-275c-27.9 21-33.2 58-34 83.1-44-50.8 81.4-200.4-61.1-292.9 88.2 114.2-125.5 226.4-125.5 394.6 0 65.9 41.1 124 131.6 144.1 88.8-18.9 132.6-78.2 132.6-144.1 0-98.3-61.2-131.2-43.6-184.7z" fill="#f26429" fill-rule="nonzero"/></svg>