<svg xmlns="http://www.w3.org/2000/svg" viewBox="0 0 882.3 210.2"><path d="M166.8 85A87.2 87.2 0 0 0 54.3 3.7 130.5 130.5 0 0 1 53 39.2a129 129 0 0 1-27 59 130 130 0 0 1-26 24.2A87.5 87.5 0 0 0 18.3 149 162.6 162.6 0 0 0 80 64.7a160.9 160.9 0 0 0 6.5-32 55.4 55.4 0 0 1 47.8 49 54.8 54.8 0 0 1-77.8 55.1 179 179 0 0 1-25.3 22.7A87.1 87.1 0 0 0 166.8 85z" fill="#5dc988"/><path d="M250 99.2c-20.8-9.6-39.2-19.1-39.2-43.4 0-16.7 13.9-37.5 41.2-37.5a50.7 50.7 0 0 1 40.5 20.8l-12.8 10.4s-10-14.9-27.7-14.9c-15.7 0-24 11-24 21.2 0 14.5 12.2 20.2 31.8 29.1 21.8 10 35.4 19.2 35.4 42.2 0 23.2-19.1 38.7-44.2 38.7-33.8 0-45.4-29.7-45.4-29.7l14.2-8.6s8.6 22 31.2 22c13.7 0 26.7-7.7 26.7-22.4 0-14.9-11.9-20.6-27.8-27.9zM324.3 69.3v13.6s9.4-16.1 31.8-16.1c25.5 0 45.6 21.8 45.6 49.5s-20.1 49.5-45.6 49.5a37.8 37.8 0 0 1-30.4-14v58.4h-17v-141zm1.4 64.5s9 16.1 27.7 16.1c19.2 0 31.2-15 31.2-33.6s-12-33.6-31.2-33.6c-18.7 0-27.7 16-27.7 16zM422.7 27.5A11.6 11.6 0 1 1 411.1 39a11.8 11.8 0 0 1 11.6-11.6zm-8.6 41.8h17.2v94H414zM506 69.3l-6.3 15.4s-3.7-2-10.8-2c-14.9 0-21.6 16-21.6 16v64.7h-17V69.2H466v14.5s8.3-16.9 26.3-16.9a39.3 39.3 0 0 1 13.6 2.5zM521 27.5A11.6 11.6 0 1 1 509.2 39a11.8 11.8 0 0 1 11.6-11.6zm-8.7 41.8h17.2v94h-17.1zM540.3 69.3h18.3V40.5h17.1v28.8H605v15.4h-29.3v50.8c0 9.1 4.5 14.4 13.7 14.4 5.3 0 10.8-3.8 10.8-3.8l6.3 14c-8.2 4.5-14 5.7-19.6 5.7-13.4 0-28.3-8.7-28.3-29.5V84.7h-18.3zM705.3 116.3c0 27.7-20.8 49.5-48.5 49.5s-48.5-21.8-48.5-49.5 20.8-49.5 48.5-49.5 48.5 21.8 48.5 49.5zm-17.1 0c0-18.5-12.5-33.6-31.4-33.6s-31.4 15-31.4 33.6 12.4 33.6 31.4 33.6 31.4-15 31.4-33.6zM714.7 129.8V69.2h17V127c0 16.1 10 23 22.7 23 15.9 0 23.4-15.5 23.4-15.5V69.2H795v94.2H779v-14.5s-8.6 17-29 17a34.2 34.2 0 0 1-35.3-36.1zM816.5 135s10 15.3 28.5 15.3c9.6 0 20.4-4 20.4-11.6 0-8.1-6.9-12.2-21.4-15-20.1-4.1-34.4-12-34.4-29.8 0-13.6 13.7-27.1 34.6-27.1a49 49 0 0 1 34.9 14.3l-11.2 11.6s-9.4-10.4-23.7-10.4c-12 0-17.9 5.9-17.9 12 0 7.1 7.3 11 22.8 14.3 18 3.8 33.2 10.5 33.2 29.7 0 18.1-19.1 27.5-37.2 27.5a51.6 51.6 0 0 1-40.4-19.8z"/></svg>