<svg viewBox="0 0 3334 1004" xmlns="http://www.w3.org/2000/svg" fill-rule="evenodd" clip-rule="evenodd" stroke-linejoin="round" stroke-miterlimit="1.41421"><g fill="#e22329" fill-rule="nonzero"><path d="M2349.8 196.3h-177.5c-4.9 0-9 4-9 9v102.6c0 5 4.1 9 9 9h177.5c5 0 9-4 9-9V205.2c0-4.9-4-8.9-9-8.9zM2346.5 349.3h-340.4c-5 0-10 3.9-11.2 8.7l-43.7 167.3-2.3 8.6-53.1-177.7a12.8 12.8 0 0 0-11.5-8.6h-132.7c-4.9 0-10 3.9-11.5 8.6l-49.7 167.5-2.6 8.5-2.2-8.6-21-82.8-21.1-82.8a12.1 12.1 0 0 0-11.2-8.7h-267.6v-144c0-5-6.3-10-11.8-8l-168 52.4c-5 1.7-9 4-9 9v90.6h-44.3c-4.9 0-8.9 4-8.9 9v127.6c0 4.9 4 9 9 9h44.2v156.3c0 110.5 59.9 162.1 171.3 162.1 45.7 0 90.7-10 120.6-25.8v-9-125c0-6.7-5.7-8.7-9.5-7a112.3 112.3 0 0 1-47.9 9.6c-30 0-45.7-12.4-45.7-46.5V494.8h95.8c5 0 9-4 9-9V378.2l126 420c1.4 4.7 6.5 8.5 11.4 8.5h139.3a13 13 0 0 0 11.7-8.5l59.6-186 30.4 97.3 27.7 88.7a13 13 0 0 0 11.6 8.5h140c5 0 10.2-3.8 11.6-8.5l127.9-421.2v421c0 4.9 4 9 9 9h170.8c5 0 9-4.1 9-9V358.3c0-5-4-9-9-9zM2571.4 196.3h-170.9c-4.9 0-8.9 4-8.9 9v592.6c0 4.9 4 9 9 9h170.8c5 0 9-4.1 9-9V205.2c0-4.9-4-8.9-9-8.9zM2799.4 196.3H2622c-4.9 0-9 4-9 9v102.6c0 5 4.1 9 9 9h177.5c5 0 9-4 9-9V205.2c0-4.9-4-8.9-9-8.9zM2796.1 349.3h-170.9c-4.9 0-8.9 4-8.9 9v439.6c0 4.9 4 9 9 9H2796c5 0 9-4.1 9-9V358.3c0-5-4-9-9-9zM3152 578c0 43.2-30.7 79-73.1 79-41.6 0-74.8-35.8-74.8-80.7v-1.6c0-43.3 30.7-79 73.1-79 41.6 0 74.9 35.7 74.9 80.6v1.7zM3079 338.5c-149.7 0-256.1 109.8-256.1 237.8v1.7c0 128 105.6 236.1 254.4 236.1 149.7 0 256.1-109.7 256.1-237.8v-1.6c0-128.1-105.6-236.2-254.4-236.2zM501.5 870.9a369.4 369.4 0 1 1 0-738.7 369.4 369.4 0 0 1 0 738.7zm0-870.9a501.5 501.5 0 1 0 0 1003 501.5 501.5 0 0 0 0-1003z"/><path d="M522.2 376.6a104.3 104.3 0 1 1 208.5 0 104.3 104.3 0 0 1-208.5 0zM522.2 626.4a104.3 104.3 0 1 1 208.5 0 104.3 104.3 0 0 1-208.5 0zM272.3 626.4a104.3 104.3 0 1 1 208.6 0 104.3 104.3 0 0 1-208.6 0zM272.3 376.6a104.3 104.3 0 1 1 208.6 0 104.3 104.3 0 0 1-208.6 0z"/></g></svg>