<svg id="Layer_1" data-name="Layer 1" xmlns="http://www.w3.org/2000/svg" viewBox="0 0 639 118"><defs><style>.cls-1{fill:#ee2b2b}.cls-3{fill:#231f20}</style></defs><path class="cls-1" d="M0 0l67 79 94-79h-40L99 19 83 0H49l29 36-8 7L34 0H0M157 18l17 19 44-37h-40l-21 18"/><path fill="#0780d7" d="M150 24l16 19-27 23 42 51h-34l-29-34-28 24-16-19 76-64"/><g><path class="cls-3" d="M175 48h7l5 23 4-23h7l5 23 5-23h7l-9 32h-6l-5-25-5 25h-6l-9-32M237 68c0-8-6-12-12-12s-12 4-12 12 6 13 12 13 12-4 12-13m-7 0c0 3 0 7-5 7s-6-4-6-7 1-7 6-7 5 4 5 7M239 56h6v4c2-2 3-4 7-4a11 11 0 0 1 1 0v6a11 11 0 0 0-2 0c-5 0-6 3-6 6v12h-6V56M256 48h6v32h-6zM288 48h-7v11a8 8 0 0 0-6-3c-6 0-10 4-10 12 0 6 3 13 10 13a7 7 0 0 0 6-4h1v3h6V48m-17 20c0-3 1-7 5-7 5 0 6 4 6 8 0 3-2 6-6 6s-5-4-5-7M300 48h7l5 23 4-23h7l5 23 5-23h7l-9 32h-6l-5-25-5 25h-6l-9-32M350 54h-6v-6h6zm0 26h-6V56h6zM376 48h-7v11a8 8 0 0 0-7-3c-5 0-9 4-9 12 0 6 3 13 10 13a7 7 0 0 0 6-4v3h6V48m-16 20c0-3 1-7 5-7s6 4 6 8c0 3-2 6-6 6s-5-4-5-7M394 73a4 4 0 0 1-4 3c-5 0-5-4-6-6h17v-1c0-11-7-13-11-13-11 0-12 9-12 12 0 9 5 12 12 12 4 0 9-1 10-7h-6m-9-7c0-3 2-5 5-5 2 0 4 1 4 5zM426 80h-7V54h-10v-6h26v6h-9v26z"/><path class="cls-3" d="M448 73a4 4 0 0 1-4 3c-5 0-5-4-5-6h16v-1c0-11-7-13-11-13-11 0-12 9-12 12 0 9 5 12 12 12 4 0 9-1 10-7h-6m-9-7c0-3 2-5 5-5 2 0 4 1 4 5zM477 71c0 3-2 10-10 10-9 0-11-7-11-12 0-8 3-13 11-13 4 0 10 1 10 9h-6c0-2-1-4-4-4-4 0-5 4-5 7 0 2 0 7 5 7a4 4 0 0 0 4-4h6M501 80h-6V66c0-2 0-5-4-5-3 0-5 2-5 5v14h-6V48h6v11c1-1 3-3 7-3s8 2 8 8v16M526 80h-6V66c0-2 0-5-4-5-3 0-5 2-5 5v14h-6V56h6v4a8 8 0 0 1 7-4c5 0 8 3 8 8v16M553 68c0-8-6-12-12-12s-12 4-12 12 6 13 12 13 12-4 12-13m-7 0c0 3 0 7-5 7s-6-4-6-7 1-7 6-7 5 4 5 7M556 48h6v32h-6zM589 68c0-8-6-12-12-12s-12 4-12 12 5 13 12 13 12-4 12-13m-7 0c0 3-1 7-5 7s-6-4-6-7 1-7 6-7 5 4 5 7M608 56v4h-1a7 7 0 0 0-6-4c-6 0-10 4-10 12s4 12 10 12a6 6 0 0 0 6-3v2c0 4-1 6-5 6-3 0-4-1-4-3h-7c1 5 6 7 11 7 11 1 12-6 12-10V56h-6m-11 12c0-5 3-7 5-7 3 0 5 3 5 7 0 3-1 7-5 7s-5-4-5-7M631 80c-3 8-4 9-9 9h-3v-5a8 8 0 0 0 1 0c2 0 4 0 4-3l-8-25h7l5 18 4-18h7l-8 23"/></g></svg>